<svg id="logo" xmlns="http://www.w3.org/2000/svg" fill-rule="evenodd" clip-rule="evenodd" viewBox="-40 0 553 222" width="500" height="250">
	<path fill="#19191a" d="M31.096 63.864c-5.112 0-9.792-1.152-13.896-3.384-4.176-2.232-7.416-5.328-9.792-9.288-2.376-3.96-3.6-8.424-3.6-13.392s1.224-9.504 3.6-13.464c2.376-3.96 5.616-6.984 9.792-9.288 4.104-2.232 8.784-3.312 13.968-3.312 4.392 0 8.352.792 11.88 2.304 3.456 1.512 6.48 3.744 8.856 6.624l-7.488 6.912c-3.384-3.96-7.632-5.904-12.672-5.904-3.096 0-5.904.648-8.352 2.016-2.448 1.368-4.32 3.312-5.688 5.76-1.368 2.448-2.088 5.256-2.088 8.352s.72 5.904 2.088 8.352c1.368 2.448 3.24 4.392 5.688 5.688 2.448 1.368 5.256 2.088 8.352 2.088 5.04 0 9.288-2.016 12.672-5.976l7.488 6.912c-2.376 2.952-5.4 5.184-8.928 6.696-3.528 1.512-7.488 2.304-11.88 2.304zM109 63.864c-5.256 0-9.936-1.152-14.112-3.384-4.248-2.232-7.488-5.4-9.864-9.36-2.376-3.96-3.6-8.352-3.6-13.32s1.224-9.432 3.6-13.392c2.376-3.96 5.616-7.056 9.864-9.288 4.176-2.232 8.856-3.384 14.112-3.384s9.936 1.152 14.112 3.384 7.488 5.328 9.864 9.288c2.376 3.96 3.6 8.424 3.6 13.392s-1.224 9.36-3.6 13.32c-2.376 3.96-5.688 7.128-9.864 9.36-4.176 2.232-8.856 3.384-14.112 3.384zm0-9.936c2.952 0 5.688-.72 8.064-2.088 2.376-1.296 4.32-3.24 5.688-5.688 1.296-2.448 2.016-5.256 2.016-8.352s-.72-5.904-2.016-8.352a15.075 15.075 0 00-5.688-5.76c-2.376-1.368-5.112-2.016-8.064-2.016s-5.688.648-8.064 2.016c-2.376 1.368-4.248 3.312-5.616 5.76-1.368 2.448-2.088 5.256-2.088 8.352s.72 5.904 2.088 8.352c1.368 2.448 3.24 4.392 5.616 5.688 2.376 1.368 5.112 2.088 8.064 2.088zM171.28 12.6h11.664v40.896h25.272V63H171.28V12.6zM262.432 63.864c-7.2 0-12.816-2.016-16.776-5.976-4.032-3.96-6.048-9.648-6.048-17.064V12.6h11.664v27.792c0 9 3.744 13.536 11.232 13.536 3.672 0 6.408-1.08 8.352-3.312 1.944-2.16 2.88-5.544 2.88-10.224V12.6h11.52v28.224c0 7.416-2.016 13.104-6.048 17.064-3.96 3.96-9.576 5.976-16.776 5.976zM368.56 63l-.072-30.24-14.832 24.912H348.4l-14.76-24.264V63h-10.944V12.6h9.648l18.864 31.32 18.576-31.32h9.576l.144 50.4H368.56zM463.6 12.6V63h-9.576l-25.128-30.6V63h-11.52V12.6h9.648l25.056 30.6V12.6h11.52z"/>
	<path fill="#19191a" d="M55.432 97.6L33.616 148h-11.52L.352 97.6h12.6l15.336 36 15.552-36h11.592zM85.528 97.6h11.664V148H85.528zM174.088 138.64V148h-39.024V97.6h38.088v9.36h-26.496v10.944h23.4v9.072h-23.4v11.664h27.432zM284.752 97.6L268.264 148h-12.528l-11.088-34.128L233.2 148h-12.456l-16.56-50.4h12.096l11.376 35.424 11.88-35.424h10.8l11.52 35.712L273.592 97.6h11.16z"/>
	<path fill="none" stroke="#dc9999" d="M323 98.25h29v121.5h-29z"/>
	<path fill="none" stroke="#dc9999" d="M378.25 98.25h29v121.5h-29z"/>
	<path fill="none" stroke="#dc9999" d="M433.5 98.25h29v121.5h-29z"/>
</svg>
